<mxfile host="app.diagrams.net" modified="2024-03-27T07:04:15.044Z" agent="Mozilla/5.0 (Windows NT 10.0; Win64; x64) AppleWebKit/537.36 (KHTML, like Gecko) Chrome/123.0.0.0 Safari/537.36" etag="5YOLtdxSH5BOHoBm2X1I" version="24.2.0" type="google">
  <diagram name="第 1 页" id="82pVd0zEFWYToXnZMY9p">
    <mxGraphModel grid="1" page="1" gridSize="10" guides="1" tooltips="1" connect="1" arrows="1" fold="1" pageScale="1" pageWidth="827" pageHeight="1169" math="0" shadow="0">
      <root>
        <mxCell id="0" />
        <mxCell id="1" parent="0" />
        <mxCell id="Zi2PnamuMeC0uRgZ33x1-1" value="" style="rounded=0;html=1;jettySize=auto;orthogonalLoop=1;fontSize=11;endArrow=classic;endFill=1;strokeWidth=1;shadow=0;labelBackgroundColor=none;edgeStyle=orthogonalEdgeStyle;fillColor=#000000;entryX=0.5;entryY=0;entryDx=0;entryDy=0;" edge="1" parent="1" target="Zi2PnamuMeC0uRgZ33x1-6">
          <mxGeometry relative="1" as="geometry">
            <mxPoint x="220" y="140" as="targetPoint" />
            <mxPoint x="220" y="100" as="sourcePoint" />
          </mxGeometry>
        </mxCell>
        <mxCell id="Zi2PnamuMeC0uRgZ33x1-2" value="" style="rounded=0;html=1;jettySize=auto;orthogonalLoop=1;fontSize=11;endArrow=classic;endFill=1;endSize=8;strokeWidth=1;shadow=0;labelBackgroundColor=none;edgeStyle=orthogonalEdgeStyle;exitX=0.5;exitY=1;exitDx=0;exitDy=0;" edge="1" parent="1" source="Zi2PnamuMeC0uRgZ33x1-5">
          <mxGeometry x="0.0372" y="-19" relative="1" as="geometry">
            <mxPoint x="19" y="19" as="offset" />
            <mxPoint x="220" y="340" as="sourcePoint" />
            <mxPoint x="220" y="360" as="targetPoint" />
          </mxGeometry>
        </mxCell>
        <mxCell id="Zi2PnamuMeC0uRgZ33x1-3" value="&lt;font style=&quot;font-size: 20px;&quot;&gt;Yes&lt;/font&gt;" style="edgeStyle=orthogonalEdgeStyle;rounded=0;html=1;jettySize=auto;orthogonalLoop=1;fontSize=11;endArrow=classic;endFill=1;endSize=8;strokeWidth=2;shadow=0;labelBackgroundColor=none;entryX=0;entryY=0.5;entryDx=0;entryDy=0;" edge="1" parent="1" target="Zi2PnamuMeC0uRgZ33x1-13">
          <mxGeometry x="0.1228" y="15" relative="1" as="geometry">
            <mxPoint as="offset" />
            <mxPoint x="360" y="401" as="targetPoint" />
            <mxPoint x="270" y="401" as="sourcePoint" />
            <Array as="points">
              <mxPoint x="270" y="415" />
            </Array>
          </mxGeometry>
        </mxCell>
        <mxCell id="Zi2PnamuMeC0uRgZ33x1-4" style="edgeStyle=orthogonalEdgeStyle;rounded=0;orthogonalLoop=1;jettySize=auto;html=1;exitX=0;exitY=0.5;exitDx=0;exitDy=0;entryX=0;entryY=0.5;entryDx=0;entryDy=0;" edge="1" parent="1" target="Zi2PnamuMeC0uRgZ33x1-5">
          <mxGeometry relative="1" as="geometry">
            <mxPoint x="150" y="415" as="sourcePoint" />
          </mxGeometry>
        </mxCell>
        <mxCell id="Zi2PnamuMeC0uRgZ33x1-5" value="&lt;font style=&quot;font-size: 19px;&quot; face=&quot;Times New Roman&quot;&gt;開啟網路攝影&lt;br&gt;機並捕捉畫面&lt;/font&gt;" style="rounded=0;whiteSpace=wrap;html=1;strokeWidth=2;" vertex="1" parent="1">
          <mxGeometry x="160" y="280" width="120" height="60" as="geometry" />
        </mxCell>
        <mxCell id="Zi2PnamuMeC0uRgZ33x1-6" value="&lt;font style=&quot;font-size: 20px;&quot; face=&quot;Times New Roman&quot;&gt;偵測網路&lt;br&gt;攝影機&lt;/font&gt;" style="rhombus;whiteSpace=wrap;html=1;strokeWidth=2;" vertex="1" parent="1">
          <mxGeometry x="150" y="143" width="140" height="107" as="geometry" />
        </mxCell>
        <mxCell id="Zi2PnamuMeC0uRgZ33x1-7" value="" style="endArrow=classicThin;html=1;rounded=0;endFill=1;exitX=1;exitY=0.5;exitDx=0;exitDy=0;strokeWidth=2;entryX=0;entryY=0.5;entryDx=0;entryDy=0;" edge="1" parent="1" source="Zi2PnamuMeC0uRgZ33x1-6" target="Zi2PnamuMeC0uRgZ33x1-18">
          <mxGeometry width="50" height="50" relative="1" as="geometry">
            <mxPoint x="280.4000000000001" y="189.79999999999995" as="sourcePoint" />
            <mxPoint x="353.9999999999998" y="183" as="targetPoint" />
            <Array as="points" />
          </mxGeometry>
        </mxCell>
        <mxCell id="Zi2PnamuMeC0uRgZ33x1-8" value="&lt;font style=&quot;font-size: 20px;&quot;&gt;No&lt;/font&gt;" style="text;html=1;align=center;verticalAlign=middle;resizable=0;points=[];autosize=1;strokeColor=none;fillColor=none;strokeWidth=2;" vertex="1" parent="1">
          <mxGeometry x="290" y="160" width="50" height="40" as="geometry" />
        </mxCell>
        <mxCell id="Zi2PnamuMeC0uRgZ33x1-9" value="" style="rounded=0;html=1;jettySize=auto;orthogonalLoop=1;fontSize=11;endArrow=classic;endFill=1;strokeWidth=1;shadow=0;labelBackgroundColor=none;edgeStyle=orthogonalEdgeStyle;fillColor=#000000;entryX=0.5;entryY=0;entryDx=0;entryDy=0;exitX=0.5;exitY=1;exitDx=0;exitDy=0;" edge="1" parent="1" source="Zi2PnamuMeC0uRgZ33x1-6" target="Zi2PnamuMeC0uRgZ33x1-5">
          <mxGeometry relative="1" as="geometry">
            <mxPoint x="230" y="160" as="targetPoint" />
            <mxPoint x="230" y="110" as="sourcePoint" />
          </mxGeometry>
        </mxCell>
        <mxCell id="Zi2PnamuMeC0uRgZ33x1-10" value="&lt;font style=&quot;font-size: 16px;&quot;&gt;Yes&lt;/font&gt;" style="text;html=1;align=center;verticalAlign=middle;resizable=0;points=[];autosize=1;strokeColor=none;fillColor=none;" vertex="1" parent="1">
          <mxGeometry x="210" y="250" width="50" height="30" as="geometry" />
        </mxCell>
        <mxCell id="Zi2PnamuMeC0uRgZ33x1-11" value="&lt;font style=&quot;font-size: 20px;&quot;&gt;No&lt;/font&gt;" style="text;html=1;align=center;verticalAlign=middle;resizable=0;points=[];autosize=1;strokeColor=none;fillColor=none;" vertex="1" parent="1">
          <mxGeometry x="125" y="365" width="50" height="40" as="geometry" />
        </mxCell>
        <mxCell id="Zi2PnamuMeC0uRgZ33x1-12" value="" style="edgeStyle=orthogonalEdgeStyle;rounded=0;orthogonalLoop=1;jettySize=auto;html=1;" edge="1" parent="1" source="Zi2PnamuMeC0uRgZ33x1-13" target="Zi2PnamuMeC0uRgZ33x1-16">
          <mxGeometry relative="1" as="geometry" />
        </mxCell>
        <mxCell id="Zi2PnamuMeC0uRgZ33x1-13" value="&lt;font style=&quot;font-size: 20px;&quot; face=&quot;Times New Roman&quot;&gt;開始坐姿&lt;br&gt;體前彎測驗&lt;/font&gt;" style="rounded=0;whiteSpace=wrap;html=1;strokeWidth=2;" vertex="1" parent="1">
          <mxGeometry x="370" y="385" width="150" height="60" as="geometry" />
        </mxCell>
        <mxCell id="Zi2PnamuMeC0uRgZ33x1-14" value="&lt;font style=&quot;font-size: 20px;&quot; face=&quot;Times New Roman&quot;&gt;啟動程式&lt;/font&gt;" style="strokeWidth=2;html=1;shape=mxgraph.flowchart.terminator;whiteSpace=wrap;" vertex="1" parent="1">
          <mxGeometry x="150" y="40" width="140" height="60" as="geometry" />
        </mxCell>
        <mxCell id="Zi2PnamuMeC0uRgZ33x1-15" style="edgeStyle=orthogonalEdgeStyle;rounded=0;orthogonalLoop=1;jettySize=auto;html=1;exitX=0.5;exitY=0;exitDx=0;exitDy=0;" edge="1" parent="1" source="Zi2PnamuMeC0uRgZ33x1-18">
          <mxGeometry relative="1" as="geometry">
            <mxPoint x="420" y="130" as="sourcePoint" />
            <mxPoint x="249.99827586206908" y="160.0044827586207" as="targetPoint" />
            <Array as="points">
              <mxPoint x="435" y="123" />
              <mxPoint x="250" y="123" />
            </Array>
          </mxGeometry>
        </mxCell>
        <mxCell id="Zi2PnamuMeC0uRgZ33x1-16" value="&lt;font style=&quot;font-size: 20px;&quot;&gt;輸出結果&lt;/font&gt;" style="shape=document;whiteSpace=wrap;html=1;boundedLbl=1;strokeWidth=2;" vertex="1" parent="1">
          <mxGeometry x="565" y="379.5" width="110" height="71" as="geometry" />
        </mxCell>
        <mxCell id="Zi2PnamuMeC0uRgZ33x1-17" value="" style="edgeStyle=orthogonalEdgeStyle;rounded=0;orthogonalLoop=1;jettySize=auto;html=1;" edge="1" parent="1" source="Zi2PnamuMeC0uRgZ33x1-18">
          <mxGeometry relative="1" as="geometry">
            <mxPoint x="555" y="196.5" as="targetPoint" />
          </mxGeometry>
        </mxCell>
        <mxCell id="Zi2PnamuMeC0uRgZ33x1-18" value="&lt;font face=&quot;Times New Roman&quot; style=&quot;font-size: 20px;&quot;&gt;檢查網路&lt;br&gt;攝影機&lt;/font&gt;" style="rhombus;whiteSpace=wrap;html=1;strokeWidth=2;" vertex="1" parent="1">
          <mxGeometry x="360" y="143" width="150" height="107" as="geometry" />
        </mxCell>
        <mxCell id="Zi2PnamuMeC0uRgZ33x1-19" value="&lt;font style=&quot;font-size: 20px;&quot;&gt;Yes&lt;/font&gt;" style="text;html=1;align=center;verticalAlign=middle;resizable=0;points=[];autosize=1;strokeColor=none;fillColor=none;" vertex="1" parent="1">
          <mxGeometry x="305" y="93" width="60" height="40" as="geometry" />
        </mxCell>
        <mxCell id="Zi2PnamuMeC0uRgZ33x1-20" value="&lt;font style=&quot;font-size: 20px;&quot;&gt;No&lt;/font&gt;" style="text;html=1;align=center;verticalAlign=middle;resizable=0;points=[];autosize=1;strokeColor=none;fillColor=none;strokeWidth=2;" vertex="1" parent="1">
          <mxGeometry x="500" y="160" width="50" height="40" as="geometry" />
        </mxCell>
        <mxCell id="Zi2PnamuMeC0uRgZ33x1-21" value="&lt;font style=&quot;font-size: 20px;&quot;&gt;輸出&quot;請檢查網路攝影機&quot;&lt;/font&gt;" style="rounded=0;whiteSpace=wrap;html=1;strokeWidth=2;" vertex="1" parent="1">
          <mxGeometry x="555" y="170" width="120" height="60" as="geometry" />
        </mxCell>
      </root>
    </mxGraphModel>
  </diagram>
</mxfile>
